HIERARCHY
ROOT hip
{
	OFFSET 0.000000 0.000000 0.000000 
	CHANNELS 6 Xposition Yposition Zposition Xrotation Zrotation Yrotation
	JOINT abdomen
	{
		OFFSET 0.000000 3.402643 0.000000 
		CHANNELS 3 Xrotation Zrotation Yrotation
		JOINT chest
		{
			OFFSET 0.000000 8.438565 -0.680529 
			CHANNELS 3 Xrotation Zrotation Yrotation
			JOINT neck
			{
				OFFSET 0.000000 10.207942 -0.272212 
				CHANNELS 3 Xrotation Zrotation Yrotation
				JOINT head
				{
					OFFSET 0.000000 3.130431 0.000000 
					CHANNELS 3 Xrotation Zrotation Yrotation
					End Site
					{
						OFFSET 0.000000 3.130435 0.000000 
					}
				}
			}
			JOINT lCollar
			{
				OFFSET 3.470700 6.669187 -0.816635 
				CHANNELS 3 Yrotation Zrotation Xrotation
				JOINT lShldr
				{
					OFFSET 3.198488 0.000000 0.000000 
					CHANNELS 3 Zrotation Yrotation Xrotation
					JOINT lForeArm
					{
						OFFSET 10.139888 0.000000 0.000000 
						CHANNELS 3 Yrotation Zrotation Xrotation
						JOINT lHand
						{
							OFFSET 8.370511 0.000000 0.000000 
							CHANNELS 3 Zrotation Yrotation Xrotation
							End Site
							{
								OFFSET 4.083176 0.000000 0.000000 
							}
						}
					}
				}
			}
			JOINT rCollar
			{
				OFFSET -3.470700 6.669187 -0.816635 
				CHANNELS 3 Yrotation Zrotation Xrotation
				JOINT rShldr
				{
					OFFSET -3.198488 0.000000 0.000000 
					CHANNELS 3 Zrotation Yrotation Xrotation
					JOINT rForeArm
					{
						OFFSET -10.139888 0.000000 0.000000 
						CHANNELS 3 Yrotation Zrotation Xrotation
						JOINT rHand
						{
							OFFSET -8.370511 0.000000 0.000000 
							CHANNELS 3 Zrotation Yrotation Xrotation
							End Site
							{
								OFFSET -4.083176 0.000000 0.000000 
							}
						}
					}
				}
			}
		}
	}
	JOINT lThigh
	{
		OFFSET 5.308129 -1.633274 1.361059 
		CHANNELS 3 Xrotation Zrotation Yrotation
		JOINT lShin
		{
			OFFSET -2.041588 -20.007561 0.000000 
			CHANNELS 3 Xrotation Zrotation Yrotation
			JOINT lFoot
			{
				OFFSET 0.000000 -19.190928 -1.224953 
				CHANNELS 3 Xrotation Yrotation Zrotation
				End Site
				{
					OFFSET 0.000000 -2.449906 4.627600 
				}
			}
		}
	}
	JOINT rThigh
	{
		OFFSET -5.308129 -1.633274 1.361059 
		CHANNELS 3 Xrotation Zrotation Yrotation
		JOINT rShin
		{
			OFFSET 2.041588 -20.007561 0.000000 
			CHANNELS 3 Xrotation Zrotation Yrotation
			JOINT rFoot
			{
				OFFSET 0.000000 -19.190928 -1.224953 
				CHANNELS 3 Xrotation Yrotation Zrotation
				End Site
				{
					OFFSET 0.000000 -2.449906 4.627600 
				}
			}
		}
	}
}
MOTION
Frames: 17
Frame Time: 0.033000
2.739895 44.014969 -0.848715 2.512422 -2.634188 37.276711 21.172001 -0.195552 -0.117662 -20.839844 0.000000 0.000000 4.779459 2.531447 0.099983 -2.520832 -1.255077 0.218355 -4.754609 -0.109184 -0.002653 -69.177834 -7.294837 34.173225 -2.634455 0.004120 -11.301931 -1.672054 0.331951 -0.113072 4.754609 0.109184 -0.002672 72.038261 3.239725 -13.145747 3.013169 -0.718837 43.031265 0.615380 9.290799 0.156400 4.604937 10.569033 5.832021 -5.547071 -4.069502 0.316011 -1.851801 0.238577 -3.866859 4.752334 -7.739067 -7.147723 -5.540240 3.920033 -0.422618 -2.189930 -0.355801 3.066052 
2.873897 43.937294 -0.719260 2.365953 -2.722290 37.475117 21.250050 -0.139510 -0.127621 -20.839844 0.000000 0.000000 4.948840 2.593217 0.246121 -2.520832 -1.255077 0.218355 -4.754609 -0.109184 -0.002653 -73.790543 -7.344856 39.456490 -2.633131 0.010882 -10.862533 -2.336124 0.135719 -0.135395 4.754609 0.109184 -0.002672 76.131630 1.972672 -12.802240 3.082616 -0.761496 48.197594 0.579045 10.247558 0.181277 4.978264 10.729202 6.284244 -5.556317 -4.108082 -0.648601 -2.645964 0.275104 -3.976533 5.114509 -7.624247 -6.976552 -5.540922 3.910693 -0.773719 -2.692444 -0.394254 3.043493 
3.009945 43.849449 -0.545615 2.326753 -2.673579 37.713333 21.337843 -0.099048 -0.206436 -20.839844 0.000000 0.000000 4.904408 2.603342 0.902474 -2.520832 -1.255077 0.218355 -4.754609 -0.109184 -0.002653 -77.586212 -7.479730 44.850864 -2.629442 0.021613 -9.534421 -2.814520 -1.601110 -0.063722 4.754609 0.109184 -0.002672 79.381660 0.717644 -12.082420 3.141841 -0.789246 52.348343 0.401258 10.970798 0.178543 5.301787 10.859040 5.217987 -5.557401 -4.089627 -0.170411 -3.667701 0.387757 -4.765388 5.522573 -7.631788 -6.927767 -5.545012 3.884381 -1.055325 -3.203035 -0.416374 3.206737 
3.149074 43.773308 -0.334957 2.649327 -2.653415 37.777332 21.386551 -0.095009 -0.299391 -20.839844 0.000000 0.000000 4.436109 2.729086 1.380651 -2.520832 -1.255077 0.218355 -4.754609 -0.109184 -0.002653 -80.480728 -7.943366 49.904541 -2.628521 0.027203 -9.173137 -3.280261 -4.644997 0.073885 4.754609 0.109184 -0.002672 81.873672 0.000999 -11.154483 3.166502 -0.793090 53.930634 0.243239 11.410669 0.173313 5.282433 10.850063 3.017775 -5.535150 -4.000817 1.755926 -5.032610 0.531847 -5.389698 5.620113 -7.826525 -6.891150 -5.542702 3.882738 -1.123592 -3.562376 -0.451745 3.490515 
3.309505 43.727112 -0.064846 3.363417 -2.807663 37.764469 21.357141 -0.083296 -0.357615 -20.839844 0.000000 0.000000 3.761695 2.740119 1.363318 -2.520832 -1.255077 0.218355 -4.754609 -0.109184 -0.002653 -82.149605 -8.800574 53.727047 -5.062380 0.048484 -8.089285 -3.685941 -7.083078 0.211206 4.754609 0.109184 -0.002672 83.627060 -0.145752 -10.654430 3.166105 -0.792801 53.881809 0.296582 12.708996 0.212521 4.988058 10.690456 2.101933 -5.530874 -3.949273 2.563348 -6.410764 0.657912 -6.131165 5.270627 -8.112118 -6.616778 -5.544549 3.864486 -1.337333 -3.760408 -0.453299 3.300972 
3.494838 43.674812 0.315372 4.039115 -3.097770 37.818268 21.327795 -0.067289 -0.372219 -20.839844 0.000000 0.000000 3.318785 2.355222 1.230907 -2.520832 -1.255077 0.218355 -4.754609 -0.109184 -0.002653 -82.596878 -9.433697 56.040222 -11.423820 0.071669 -6.489363 -3.072735 -7.688505 0.223058 4.754609 0.109184 -0.002672 84.784256 -0.254641 -10.634409 3.164521 -0.791641 53.686504 -0.190426 14.663660 0.204653 4.852015 10.633580 2.696484 -5.536326 -3.991575 1.862784 -7.569261 0.846835 -6.983352 4.959466 -8.230568 -5.847907 -5.533764 3.815264 -2.222427 -4.140331 -0.449451 2.871183 
3.680122 43.574799 0.841831 4.353329 -3.388656 38.013546 21.327753 -0.069437 -0.394024 -20.839844 0.000000 0.000000 2.843275 1.800419 1.399343 -2.520832 -1.255077 0.218355 -4.754609 -0.109184 -0.002653 -82.000572 -9.790959 56.443005 -19.512924 0.002010 -4.024412 -1.874692 -7.550817 0.247222 4.754609 0.109184 -0.002672 85.623009 -0.604321 -11.147787 3.152331 -0.794735 52.905025 -1.466654 16.856691 0.082172 5.106915 10.868363 3.817517 -5.548236 -4.061179 0.647627 -8.207952 0.936528 -7.467507 5.143071 -8.022618 -4.550193 -5.519856 3.735232 -3.818636 -4.985207 -0.430332 2.703614 
3.860870 43.451439 1.477486 4.657656 -3.601380 38.368862 21.327682 -0.068112 -0.424956 -20.839844 0.000000 0.000000 2.111627 1.573689 1.441834 -2.520832 -1.255077 0.218355 -4.754609 -0.109184 -0.002653 -80.589066 -10.764525 54.894600 -28.309086 -0.309915 0.565007 -1.703780 -6.858815 -0.357957 4.754609 0.109184 -0.002672 86.314255 -2.706878 -11.619754 6.704064 -0.779168 50.913151 -0.951654 18.036180 0.167757 5.428810 11.141159 4.510867 -5.557409 -4.109409 -0.452414 -8.091516 0.928570 -7.673048 5.612579 -7.751636 -4.103906 -5.514334 3.698711 -4.655755 -5.912208 -0.479644 2.697515 
4.053284 43.342796 2.157783 5.323952 -3.753316 38.751518 21.307983 -0.098408 -0.510068 -20.839844 0.000000 0.000000 1.004619 1.463669 1.276118 -2.520832 -1.255077 0.218355 -4.754609 -0.109184 -0.002653 -79.179642 -12.260500 54.006733 -36.271271 -0.283481 3.927331 -1.141310 -6.058551 -0.386414 4.754609 0.109184 -0.002672 87.291267 -10.951296 -9.161530 23.458403 -0.904713 44.813927 5.554936 13.413072 0.197577 5.435488 11.087237 4.723346 -5.550981 -4.133564 -1.145165 -7.542426 0.848150 -7.207294 5.874837 -7.729733 -3.923037 -5.505825 3.660513 -5.336436 -6.759796 -0.483666 2.582294 
4.226378 43.237206 2.808600 6.051735 -4.234171 38.867710 21.288322 -0.084546 -0.546488 -20.839844 0.000000 0.000000 -0.254055 1.451336 1.328889 -2.520832 -1.255077 0.218355 -4.754609 -0.109184 -0.002653 -77.855370 -13.653189 53.292610 -42.750549 -0.244298 5.728312 0.685719 -5.237063 -0.366021 4.754609 0.109184 -0.002672 87.309937 -14.727023 -7.590718 31.882612 -0.918518 39.161041 9.232533 9.858599 0.127068 5.134501 11.149370 5.365285 -5.555590 -4.156536 -1.563739 -6.748305 0.664748 -5.908766 5.719019 -7.475720 -3.468684 -5.505628 3.632450 -5.950065 -7.500784 -0.476671 2.374584 
4.386291 43.112808 3.454391 6.558527 -5.025659 38.826908 21.307867 -0.042496 -0.519704 -20.839844 0.000000 0.000000 -1.211364 1.753948 1.318254 -2.520832 -1.255077 0.218355 -4.754609 -0.109184 -0.002653 -76.554581 -14.489178 52.043236 -47.825836 -0.226507 6.416366 2.425332 -4.658860 -0.317586 4.754609 0.109184 -0.002672 87.113853 -16.618238 -5.764854 36.617943 -0.789986 34.151371 10.864367 7.299206 0.102529 4.733754 11.549547 5.575593 -5.556044 -4.126145 -0.901411 -5.182147 0.362448 -3.796595 5.487295 -6.796631 -3.332939 -5.499414 3.618249 -6.027212 -8.039599 -0.444924 1.951348 
4.536040 42.959496 4.127577 6.918683 -5.661866 38.600719 21.386187 -0.021237 -0.438297 -20.839844 0.000000 0.000000 -1.753208 2.054429 1.567068 -2.520832 -1.255077 0.218355 -4.754609 -0.109184 -0.002653 -75.308105 -14.490457 49.299706 -51.754345 -0.210820 6.868093 3.210574 -4.324975 -0.270256 4.754609 0.109184 -0.002672 86.519806 -17.905678 -3.330293 40.280884 -0.691480 30.350441 11.042243 5.650939 0.012970 4.391847 12.025583 4.782963 -5.546618 -4.020647 1.015488 -1.775027 0.148944 -2.073627 5.501411 -6.096196 -3.401913 -5.513506 3.631373 -5.804131 -8.607882 -0.360617 1.218220 
4.684813 42.761497 4.824141 7.375202 -6.043710 38.212559 21.484127 -0.071904 -0.332631 -20.839844 0.000000 0.000000 -2.227960 2.189521 2.236337 -2.520832 -1.255077 0.218355 -4.754609 -0.109184 -0.002653 -74.388519 -13.739454 46.024834 -54.272560 -0.220530 6.064210 4.185421 -4.519128 -0.234112 4.754609 0.109184 -0.002672 85.716202 -18.827160 -0.974592 43.879715 -0.639474 28.513069 10.472773 4.714746 -0.040197 -5.183386 12.826261 2.648388 12.943365 -3.709637 1.764652 -5.539748 0.198256 -1.754307 5.659759 -5.669650 -3.330229 -5.501759 3.649903 -5.560385 -9.217563 -0.278004 0.525358 
4.874663 42.516800 5.486097 8.084061 -6.768641 38.044609 21.552629 -0.052067 -0.220045 -20.839844 0.000000 0.000000 -2.866915 2.622331 2.544059 -2.520832 -1.255077 0.218355 -4.754609 -0.109184 -0.002653 -73.727303 -12.532402 42.817810 -55.608837 -0.242116 3.916770 5.338071 -5.016512 -0.206664 4.754609 0.109184 -0.002672 84.909500 -18.707628 1.769401 47.201984 -0.586357 26.367901 9.611541 3.993255 -0.085689 -13.899864 12.465555 -2.125731 27.105888 -2.993920 5.204612 -3.310629 0.270634 -1.514588 5.386385 -5.201183 -3.085758 -5.503193 3.639626 -5.667196 -9.812628 -0.216064 0.014901 
5.152434 42.228432 6.149159 8.656153 -7.859809 38.171780 21.611309 0.061979 -0.080477 -20.839844 0.000000 0.000000 -3.431975 3.355601 2.203212 -2.520832 -1.255077 0.218355 -4.754609 -0.109184 -0.002653 -73.259918 -10.817462 40.185051 -55.694775 -0.267733 1.770765 7.131120 -4.732108 -0.177835 4.754609 0.109184 -0.002672 84.143112 -18.274532 4.919755 51.191605 -0.496948 23.061033 8.986214 3.017672 -0.130623 -21.863123 12.625826 -3.379849 38.607235 -2.579457 4.282147 0.699465 0.078349 0.498086 3.875550 -4.481339 -3.180120 -2.861257 3.661412 -5.539630 -11.951511 -0.226743 0.016270 
5.536162 41.927383 6.886284 9.163528 -8.881198 38.162239 21.699261 0.113134 0.087076 -20.839844 0.000000 0.000000 -4.086554 4.039194 1.837406 -2.520832 -1.255077 0.218355 -4.754609 -0.109184 -0.002653 -73.004799 -8.676895 38.450760 -53.574699 -0.296276 -0.128279 10.009254 -5.281050 -0.226434 4.754609 0.109184 -0.002672 82.706520 -18.259377 9.098157 57.071018 -0.373361 18.741238 7.796041 1.379156 -0.218997 -28.615532 13.209699 -3.005411 47.074764 -2.310115 1.423934 1.549898 -0.033220 1.276418 2.534154 -3.829917 -4.445445 0.059009 3.719040 -4.142981 -14.354096 -0.332656 0.481646 
6.062167 41.708572 7.709754 9.994918 -9.600954 37.954185 21.757711 0.084705 0.244074 -20.839844 0.000000 0.000000 -4.977678 4.410728 1.857541 -2.520832 -1.255077 0.218355 -4.754609 -0.109184 -0.002653 -72.746666 -5.518179 37.244328 -50.594414 -0.330884 -1.993121 12.739507 -7.114933 -0.417924 4.754609 0.109184 -0.002672 80.284981 -18.798584 13.641218 66.570808 -0.214722 12.804955 5.827631 -0.232180 -0.247701 -33.954624 13.540915 -1.616361 51.322521 -2.253515 -1.559952 0.026215 -0.049348 -0.499110 2.771033 -3.679300 -6.067643 -0.048875 3.815156 -2.337228 -14.800465 -0.462874 1.125341 
